{"title":"Last.Of.The.Summer.Wine.S24.DVDRip.DivX-NOGRP","uid":11793506,"size":3569682686,"categoryP":"video","categoryS":"tv_shows","magnet":"?xt=urn:btih:03ffb685a1e80693164c37603283c7821d987fe1&amp;dn=Last.Of.The.Summer.Wine.S24.DVDRip.DivX-NOGRP&amp;tr=udp%3A%2F%2Ftracker.openbittorrent.com%3A80&amp;tr=udp%3A%2F%2Fopen.demonii.com%3A1337&amp;tr=udp%3A%2F%2Ftracker.coppersurfer.tk%3A6969&amp;tr=udp%3A%2F%2Fexodus.desync.com%3A6969","seeders":1,"leechers":4,"uploader":"akula941","files":11,"time":1428039854,"description":"Three old men from Yorkshire who have never grown up face the trials of their fellow town citizens and everyday life and stay young by reminiscing about the days of their youth and attempting feats not common to the elderly.\n\nFormat : DivX\nFormat/Info : Hack of AVI\nFile size : 310 MiB\nDuration : 29mn 2s\nOverall bit rate : 1 492 Kbps\n\nVideo\nID : 0\nFormat : MPEG-4 Visual\nFormat settings, BVOP : 1\nFormat settings, QPel : No\nFormat settings, GMC : No warppoints\nFormat settings, Matrix : Default (H.263)\nMuxing mode : Packed bitstream\nCodec ID : DX50\nCodec ID/Hint : DivX 5\nDuration : 29mn 2s\nBit rate : 1 401 Kbps\nWidth : 352 pixels\nHeight : 256 pixels\nDisplay aspect ratio : 1.375\nFrame rate : 29.970 fps\nColor space : YUV\nChroma subsampling : 4:2:0\nBit depth : 8 bits\nScan type : Progressive\nCompression mode : Lossy\nBits/(Pixel*Frame) : 0.519\nStream size : 291 MiB (94%)\nTitle : Video \nWriting library : DivX 6.2.5 (UTC 2006-07)\n\nAudio\nID : 1\nFormat : MPEG Audio\nFormat version : Version 1\nFormat profile : Layer 3\nMode : Dual mono\nCodec ID : 55\nCodec ID/Hint : MP3\nDuration : 29mn 2s\nBit rate mode : Constant\nBit rate : 80.0 Kbps\nChannel(s) : 2 channels\nSampling rate : 32.0 KHz\nCompression mode : Lossy\nStream size : 16.6 MiB (5%)\nAlignment : Split accross interleaves\nInterleave, duration : 33 ms (1.00 video frame)\nInterleave, preload duration : 500 ms\nTitle : Audio","torrent":{"xt":"urn:btih:03ffb685a1e80693164c37603283c7821d987fe1","amp;dn":"Last.Of.The.Summer.Wine.S24.DVDRip.DivX-NOGRP","amp;tr":["udp%3A%2F%2Ftracker.openbittorrent.com%3A80","udp%3A%2F%2Fopen.demonii.com%3A1337","udp%3A%2F%2Ftracker.coppersurfer.tk%3A6969","udp%3A%2F%2Fexodus.desync.com%3A6969"],"infoHash":"03ffb685a1e80693164c37603283c7821d987fe1","infoHashBuffer":{"type":"Buffer","data":[3,255,182,133,161,232,6,147,22,76,55,96,50,131,199,130,29,152,127,225]},"announce":[],"urlList":[]}}